<svg id="logo" width="264" height="143" viewBox="0 0 264 143" fill="none" xmlns="http://www.w3.org/2000/svg">
<path opacity="0.7" d="M0 40.4784C37.5 44.9785 219.976 -52.8077 257 40.4784C271.694 77.5025 257 142.479 257 142.479H0V40.4784Z" fill="#D9D9D9"/>
<g filter="url(#filter0_d_1_30)">
<mask id="path-2-outside-1_1_30" maskUnits="userSpaceOnUse" x="33" y="75" width="197" height="21" fill="black">
<rect fill="white" x="33" y="75" width="197" height="21"/>
<path d="M34.321 94V76.5455H41.5312C42.8381 76.5455 43.9659 76.8011 44.9148 77.3125C45.8693 77.8182 46.6051 78.5256 47.1222 79.4347C47.6392 80.3381 47.8977 81.3892 47.8977 82.5881C47.8977 83.7926 47.6335 84.8466 47.1051 85.75C46.5824 86.6477 45.8352 87.3437 44.8636 87.8381C43.892 88.3324 42.7386 88.5795 41.4034 88.5795H36.9545V85.2557H40.6193C41.2557 85.2557 41.7869 85.1449 42.2131 84.9233C42.6449 84.7017 42.9716 84.392 43.1932 83.9943C43.4148 83.5909 43.5256 83.1222 43.5256 82.5881C43.5256 82.0483 43.4148 81.5824 43.1932 81.1903C42.9716 80.7926 42.6449 80.4858 42.2131 80.2699C41.7813 80.054 41.25 79.946 40.6193 79.946H38.5398V94H34.321ZM65.821 82.8693H61.5597C61.5028 82.4318 61.3864 82.0369 61.2102 81.6847C61.0341 81.3324 60.8011 81.0312 60.5114 80.7812C60.2216 80.5312 59.8778 80.3409 59.4801 80.2102C59.0881 80.0739 58.6534 80.0057 58.1761 80.0057C57.3295 80.0057 56.5994 80.2131 55.9858 80.6278C55.3778 81.0426 54.9091 81.642 54.5795 82.4261C54.2557 83.2102 54.0938 84.1591 54.0938 85.2727C54.0938 86.4318 54.2585 87.4034 54.5881 88.1875C54.9233 88.9659 55.392 89.554 55.9943 89.9517C56.6023 90.3437 57.321 90.5398 58.1506 90.5398C58.6165 90.5398 59.0398 90.4801 59.4205 90.3608C59.8068 90.2415 60.1449 90.0682 60.4347 89.8409C60.7301 89.608 60.9716 89.3267 61.1591 88.9972C61.3523 88.6619 61.4858 88.2841 61.5597 87.8636L65.821 87.8892C65.7472 88.6619 65.5227 89.4233 65.1477 90.1733C64.7784 90.9233 64.2699 91.608 63.6222 92.2273C62.9744 92.8409 62.1847 93.3295 61.2528 93.6932C60.3267 94.0568 59.2642 94.2386 58.0653 94.2386C56.4858 94.2386 55.071 93.892 53.821 93.1989C52.5767 92.5 51.5938 91.483 50.8722 90.1477C50.1506 88.8125 49.7898 87.1875 49.7898 85.2727C49.7898 83.3523 50.1562 81.7244 50.8892 80.3892C51.6222 79.054 52.6136 78.0398 53.8636 77.3466C55.1136 76.6534 56.5142 76.3068 58.0653 76.3068C59.1222 76.3068 60.0994 76.4545 60.9972 76.75C61.8949 77.0398 62.6847 77.4659 63.3665 78.0284C64.0483 78.5852 64.6023 79.2699 65.0284 80.0824C65.4545 80.8949 65.7188 81.8239 65.821 82.8693ZM76.6129 83.6705V86.875H68.5334V83.6705H76.6129ZM95.3991 82.8693H91.1378C91.081 82.4318 90.9645 82.0369 90.7884 81.6847C90.6122 81.3324 90.3793 81.0312 90.0895 80.7812C89.7997 80.5312 89.456 80.3409 89.0582 80.2102C88.6662 80.0739 88.2315 80.0057 87.7543 80.0057C86.9077 80.0057 86.1776 80.2131 85.5639 80.6278C84.956 81.0426 84.4872 81.642 84.1577 82.4261C83.8338 83.2102 83.6719 84.1591 83.6719 85.2727C83.6719 86.4318 83.8366 87.4034 84.1662 88.1875C84.5014 88.9659 84.9702 89.554 85.5724 89.9517C86.1804 90.3437 86.8991 90.5398 87.7287 90.5398C88.1946 90.5398 88.6179 90.4801 88.9986 90.3608C89.3849 90.2415 89.723 90.0682 90.0128 89.8409C90.3082 89.608 90.5497 89.3267 90.7372 88.9972C90.9304 88.6619 91.0639 88.2841 91.1378 87.8636L95.3991 87.8892C95.3253 88.6619 95.1009 89.4233 94.7259 90.1733C94.3565 90.9233 93.848 91.608 93.2003 92.2273C92.5526 92.8409 91.7628 93.3295 90.831 93.6932C89.9048 94.0568 88.8423 94.2386 87.6435 94.2386C86.0639 94.2386 84.6491 93.892 83.3991 93.1989C82.1548 92.5 81.1719 91.483 80.4503 90.1477C79.7287 88.8125 79.3679 87.1875 79.3679 85.2727C79.3679 83.3523 79.7344 81.7244 80.4673 80.3892C81.2003 79.054 82.1918 78.0398 83.4418 77.3466C84.6918 76.6534 86.0923 76.3068 87.6435 76.3068C88.7003 76.3068 89.6776 76.4545 90.5753 76.75C91.473 77.0398 92.2628 77.4659 92.9446 78.0284C93.6264 78.5852 94.1804 79.2699 94.6065 80.0824C95.0327 80.8949 95.2969 81.8239 95.3991 82.8693ZM114.288 85.2727C114.288 87.1932 113.918 88.821 113.18 90.1562C112.441 91.4915 111.441 92.5057 110.18 93.1989C108.924 93.892 107.515 94.2386 105.952 94.2386C104.384 94.2386 102.972 93.8892 101.717 93.1903C100.461 92.4915 99.4638 91.4773 98.7251 90.1477C97.9922 88.8125 97.6257 87.1875 97.6257 85.2727C97.6257 83.3523 97.9922 81.7244 98.7251 80.3892C99.4638 79.054 100.461 78.0398 101.717 77.3466C102.972 76.6534 104.384 76.3068 105.952 76.3068C107.515 76.3068 108.924 76.6534 110.18 77.3466C111.441 78.0398 112.441 79.054 113.18 80.3892C113.918 81.7244 114.288 83.3523 114.288 85.2727ZM109.975 85.2727C109.975 84.1364 109.813 83.1761 109.489 82.392C109.171 81.608 108.711 81.0142 108.109 80.6108C107.512 80.2074 106.793 80.0057 105.952 80.0057C105.117 80.0057 104.398 80.2074 103.796 80.6108C103.194 81.0142 102.731 81.608 102.407 82.392C102.089 83.1761 101.93 84.1364 101.93 85.2727C101.93 86.4091 102.089 87.3693 102.407 88.1534C102.731 88.9375 103.194 89.5312 103.796 89.9347C104.398 90.3381 105.117 90.5398 105.952 90.5398C106.793 90.5398 107.512 90.3381 108.109 89.9347C108.711 89.5312 109.171 88.9375 109.489 88.1534C109.813 87.3693 109.975 86.4091 109.975 85.2727ZM116.751 76.5455H121.975L126.407 87.3523H126.612L131.043 76.5455H136.268V94H132.16V83.2784H132.015L127.822 93.8892H125.197L121.004 83.2188H120.859V94H116.751V76.5455ZM147.277 83.6705V86.875H139.197V83.6705H147.277ZM159.654 81.7784C159.597 81.1534 159.344 80.6676 158.896 80.321C158.452 79.9688 157.819 79.7926 156.995 79.7926C156.45 79.7926 155.995 79.8636 155.631 80.0057C155.268 80.1477 154.995 80.3438 154.813 80.5938C154.631 80.8381 154.538 81.1193 154.532 81.4375C154.521 81.6989 154.572 81.929 154.685 82.1278C154.805 82.3267 154.975 82.5028 155.197 82.6562C155.424 82.804 155.697 82.9347 156.015 83.0483C156.333 83.1619 156.691 83.2614 157.089 83.3466L158.589 83.6875C159.452 83.875 160.214 84.125 160.873 84.4375C161.538 84.75 162.094 85.1222 162.543 85.554C162.998 85.9858 163.342 86.483 163.575 87.0455C163.808 87.608 163.927 88.2386 163.933 88.9375C163.927 90.0398 163.648 90.9858 163.097 91.7756C162.546 92.5653 161.754 93.1705 160.719 93.5909C159.691 94.0114 158.45 94.2216 156.995 94.2216C155.535 94.2216 154.262 94.0028 153.177 93.5653C152.092 93.1278 151.248 92.4631 150.646 91.571C150.043 90.679 149.734 89.5511 149.717 88.1875H153.756C153.79 88.75 153.941 89.2188 154.208 89.5938C154.475 89.9688 154.842 90.2528 155.308 90.446C155.779 90.6392 156.325 90.7358 156.944 90.7358C157.512 90.7358 157.995 90.6591 158.393 90.5057C158.796 90.3523 159.106 90.1392 159.322 89.8665C159.538 89.5937 159.648 89.2812 159.654 88.929C159.648 88.5994 159.546 88.3182 159.347 88.0852C159.148 87.8466 158.842 87.642 158.427 87.4716C158.018 87.2955 157.495 87.1335 156.859 86.9858L155.035 86.5597C153.523 86.2131 152.333 85.6534 151.464 84.8807C150.594 84.1023 150.163 83.0511 150.168 81.7273C150.163 80.6477 150.452 79.7017 151.038 78.8892C151.623 78.0767 152.433 77.4432 153.467 76.9886C154.501 76.5341 155.68 76.3068 157.004 76.3068C158.356 76.3068 159.529 76.5369 160.523 76.9972C161.523 77.4517 162.299 78.0909 162.85 78.9148C163.401 79.7386 163.683 80.6932 163.694 81.7784H159.654ZM165.492 79.9716V76.5455H180.245V79.9716H174.952V94H170.793V79.9716H165.492ZM197.983 85.2727C197.983 87.1932 197.614 88.821 196.875 90.1562C196.136 91.4915 195.136 92.5057 193.875 93.1989C192.619 93.892 191.21 94.2386 189.648 94.2386C188.08 94.2386 186.668 93.8892 185.412 93.1903C184.156 92.4915 183.159 91.4773 182.42 90.1477C181.688 88.8125 181.321 87.1875 181.321 85.2727C181.321 83.3523 181.688 81.7244 182.42 80.3892C183.159 79.054 184.156 78.0398 185.412 77.3466C186.668 76.6534 188.08 76.3068 189.648 76.3068C191.21 76.3068 192.619 76.6534 193.875 77.3466C195.136 78.0398 196.136 79.054 196.875 80.3892C197.614 81.7244 197.983 83.3523 197.983 85.2727ZM193.67 85.2727C193.67 84.1364 193.509 83.1761 193.185 82.392C192.866 81.608 192.406 81.0142 191.804 80.6108C191.207 80.2074 190.489 80.0057 189.648 80.0057C188.813 80.0057 188.094 80.2074 187.491 80.6108C186.889 81.0142 186.426 81.608 186.102 82.392C185.784 83.1761 185.625 84.1364 185.625 85.2727C185.625 86.4091 185.784 87.3693 186.102 88.1534C186.426 88.9375 186.889 89.5312 187.491 89.9347C188.094 90.3381 188.813 90.5398 189.648 90.5398C190.489 90.5398 191.207 90.3381 191.804 89.9347C192.406 89.5312 192.866 88.9375 193.185 88.1534C193.509 87.3693 193.67 86.4091 193.67 85.2727ZM200.446 94V76.5455H207.656C208.963 76.5455 210.091 76.7812 211.04 77.2528C211.994 77.7187 212.73 78.3892 213.247 79.2642C213.764 80.1335 214.023 81.1648 214.023 82.358C214.023 83.5682 213.759 84.5966 213.23 85.4432C212.702 86.2841 211.952 86.9261 210.98 87.3693C210.009 87.8068 208.858 88.0256 207.528 88.0256H202.969V84.7017H206.744C207.381 84.7017 207.912 84.6193 208.338 84.4545C208.77 84.2841 209.097 84.0284 209.318 83.6875C209.54 83.3409 209.651 82.8977 209.651 82.358C209.651 81.8182 209.54 81.3722 209.318 81.0199C209.097 80.6619 208.77 80.3949 208.338 80.2188C207.906 80.0369 207.375 79.946 206.744 79.946H204.665V94H200.446ZM210.273 86.0227L214.619 94H210.017L205.756 86.0227H210.273ZM216.337 94V76.5455H228.507V79.9716H220.555V83.5511H227.885V86.9858H220.555V90.5739H228.507V94H216.337Z"/>
</mask>
<path d="M34.321 94V76.5455H41.5312C42.8381 76.5455 43.9659 76.8011 44.9148 77.3125C45.8693 77.8182 46.6051 78.5256 47.1222 79.4347C47.6392 80.3381 47.8977 81.3892 47.8977 82.5881C47.8977 83.7926 47.6335 84.8466 47.1051 85.75C46.5824 86.6477 45.8352 87.3437 44.8636 87.8381C43.892 88.3324 42.7386 88.5795 41.4034 88.5795H36.9545V85.2557H40.6193C41.2557 85.2557 41.7869 85.1449 42.2131 84.9233C42.6449 84.7017 42.9716 84.392 43.1932 83.9943C43.4148 83.5909 43.5256 83.1222 43.5256 82.5881C43.5256 82.0483 43.4148 81.5824 43.1932 81.1903C42.9716 80.7926 42.6449 80.4858 42.2131 80.2699C41.7813 80.054 41.25 79.946 40.6193 79.946H38.5398V94H34.321ZM65.821 82.8693H61.5597C61.5028 82.4318 61.3864 82.0369 61.2102 81.6847C61.0341 81.3324 60.8011 81.0312 60.5114 80.7812C60.2216 80.5312 59.8778 80.3409 59.4801 80.2102C59.0881 80.0739 58.6534 80.0057 58.1761 80.0057C57.3295 80.0057 56.5994 80.2131 55.9858 80.6278C55.3778 81.0426 54.9091 81.642 54.5795 82.4261C54.2557 83.2102 54.0938 84.1591 54.0938 85.2727C54.0938 86.4318 54.2585 87.4034 54.5881 88.1875C54.9233 88.9659 55.392 89.554 55.9943 89.9517C56.6023 90.3437 57.321 90.5398 58.1506 90.5398C58.6165 90.5398 59.0398 90.4801 59.4205 90.3608C59.8068 90.2415 60.1449 90.0682 60.4347 89.8409C60.7301 89.608 60.9716 89.3267 61.1591 88.9972C61.3523 88.6619 61.4858 88.2841 61.5597 87.8636L65.821 87.8892C65.7472 88.6619 65.5227 89.4233 65.1477 90.1733C64.7784 90.9233 64.2699 91.608 63.6222 92.2273C62.9744 92.8409 62.1847 93.3295 61.2528 93.6932C60.3267 94.0568 59.2642 94.2386 58.0653 94.2386C56.4858 94.2386 55.071 93.892 53.821 93.1989C52.5767 92.5 51.5938 91.483 50.8722 90.1477C50.1506 88.8125 49.7898 87.1875 49.7898 85.2727C49.7898 83.3523 50.1562 81.7244 50.8892 80.3892C51.6222 79.054 52.6136 78.0398 53.8636 77.3466C55.1136 76.6534 56.5142 76.3068 58.0653 76.3068C59.1222 76.3068 60.0994 76.4545 60.9972 76.75C61.8949 77.0398 62.6847 77.4659 63.3665 78.0284C64.0483 78.5852 64.6023 79.2699 65.0284 80.0824C65.4545 80.8949 65.7188 81.8239 65.821 82.8693ZM76.6129 83.6705V86.875H68.5334V83.6705H76.6129ZM95.3991 82.8693H91.1378C91.081 82.4318 90.9645 82.0369 90.7884 81.6847C90.6122 81.3324 90.3793 81.0312 90.0895 80.7812C89.7997 80.5312 89.456 80.3409 89.0582 80.2102C88.6662 80.0739 88.2315 80.0057 87.7543 80.0057C86.9077 80.0057 86.1776 80.2131 85.5639 80.6278C84.956 81.0426 84.4872 81.642 84.1577 82.4261C83.8338 83.2102 83.6719 84.1591 83.6719 85.2727C83.6719 86.4318 83.8366 87.4034 84.1662 88.1875C84.5014 88.9659 84.9702 89.554 85.5724 89.9517C86.1804 90.3437 86.8991 90.5398 87.7287 90.5398C88.1946 90.5398 88.6179 90.4801 88.9986 90.3608C89.3849 90.2415 89.723 90.0682 90.0128 89.8409C90.3082 89.608 90.5497 89.3267 90.7372 88.9972C90.9304 88.6619 91.0639 88.2841 91.1378 87.8636L95.3991 87.8892C95.3253 88.6619 95.1009 89.4233 94.7259 90.1733C94.3565 90.9233 93.848 91.608 93.2003 92.2273C92.5526 92.8409 91.7628 93.3295 90.831 93.6932C89.9048 94.0568 88.8423 94.2386 87.6435 94.2386C86.0639 94.2386 84.6491 93.892 83.3991 93.1989C82.1548 92.5 81.1719 91.483 80.4503 90.1477C79.7287 88.8125 79.3679 87.1875 79.3679 85.2727C79.3679 83.3523 79.7344 81.7244 80.4673 80.3892C81.2003 79.054 82.1918 78.0398 83.4418 77.3466C84.6918 76.6534 86.0923 76.3068 87.6435 76.3068C88.7003 76.3068 89.6776 76.4545 90.5753 76.75C91.473 77.0398 92.2628 77.4659 92.9446 78.0284C93.6264 78.5852 94.1804 79.2699 94.6065 80.0824C95.0327 80.8949 95.2969 81.8239 95.3991 82.8693ZM114.288 85.2727C114.288 87.1932 113.918 88.821 113.18 90.1562C112.441 91.4915 111.441 92.5057 110.18 93.1989C108.924 93.892 107.515 94.2386 105.952 94.2386C104.384 94.2386 102.972 93.8892 101.717 93.1903C100.461 92.4915 99.4638 91.4773 98.7251 90.1477C97.9922 88.8125 97.6257 87.1875 97.6257 85.2727C97.6257 83.3523 97.9922 81.7244 98.7251 80.3892C99.4638 79.054 100.461 78.0398 101.717 77.3466C102.972 76.6534 104.384 76.3068 105.952 76.3068C107.515 76.3068 108.924 76.6534 110.18 77.3466C111.441 78.0398 112.441 79.054 113.18 80.3892C113.918 81.7244 114.288 83.3523 114.288 85.2727ZM109.975 85.2727C109.975 84.1364 109.813 83.1761 109.489 82.392C109.171 81.608 108.711 81.0142 108.109 80.6108C107.512 80.2074 106.793 80.0057 105.952 80.0057C105.117 80.0057 104.398 80.2074 103.796 80.6108C103.194 81.0142 102.731 81.608 102.407 82.392C102.089 83.1761 101.93 84.1364 101.93 85.2727C101.93 86.4091 102.089 87.3693 102.407 88.1534C102.731 88.9375 103.194 89.5312 103.796 89.9347C104.398 90.3381 105.117 90.5398 105.952 90.5398C106.793 90.5398 107.512 90.3381 108.109 89.9347C108.711 89.5312 109.171 88.9375 109.489 88.1534C109.813 87.3693 109.975 86.4091 109.975 85.2727ZM116.751 76.5455H121.975L126.407 87.3523H126.612L131.043 76.5455H136.268V94H132.16V83.2784H132.015L127.822 93.8892H125.197L121.004 83.2188H120.859V94H116.751V76.5455ZM147.277 83.6705V86.875H139.197V83.6705H147.277ZM159.654 81.7784C159.597 81.1534 159.344 80.6676 158.896 80.321C158.452 79.9688 157.819 79.7926 156.995 79.7926C156.45 79.7926 155.995 79.8636 155.631 80.0057C155.268 80.1477 154.995 80.3438 154.813 80.5938C154.631 80.8381 154.538 81.1193 154.532 81.4375C154.521 81.6989 154.572 81.929 154.685 82.1278C154.805 82.3267 154.975 82.5028 155.197 82.6562C155.424 82.804 155.697 82.9347 156.015 83.0483C156.333 83.1619 156.691 83.2614 157.089 83.3466L158.589 83.6875C159.452 83.875 160.214 84.125 160.873 84.4375C161.538 84.75 162.094 85.1222 162.543 85.554C162.998 85.9858 163.342 86.483 163.575 87.0455C163.808 87.608 163.927 88.2386 163.933 88.9375C163.927 90.0398 163.648 90.9858 163.097 91.7756C162.546 92.5653 161.754 93.1705 160.719 93.5909C159.691 94.0114 158.45 94.2216 156.995 94.2216C155.535 94.2216 154.262 94.0028 153.177 93.5653C152.092 93.1278 151.248 92.4631 150.646 91.571C150.043 90.679 149.734 89.5511 149.717 88.1875H153.756C153.79 88.75 153.941 89.2188 154.208 89.5938C154.475 89.9688 154.842 90.2528 155.308 90.446C155.779 90.6392 156.325 90.7358 156.944 90.7358C157.512 90.7358 157.995 90.6591 158.393 90.5057C158.796 90.3523 159.106 90.1392 159.322 89.8665C159.538 89.5937 159.648 89.2812 159.654 88.929C159.648 88.5994 159.546 88.3182 159.347 88.0852C159.148 87.8466 158.842 87.642 158.427 87.4716C158.018 87.2955 157.495 87.1335 156.859 86.9858L155.035 86.5597C153.523 86.2131 152.333 85.6534 151.464 84.8807C150.594 84.1023 150.163 83.0511 150.168 81.7273C150.163 80.6477 150.452 79.7017 151.038 78.8892C151.623 78.0767 152.433 77.4432 153.467 76.9886C154.501 76.5341 155.68 76.3068 157.004 76.3068C158.356 76.3068 159.529 76.5369 160.523 76.9972C161.523 77.4517 162.299 78.0909 162.85 78.9148C163.401 79.7386 163.683 80.6932 163.694 81.7784H159.654ZM165.492 79.9716V76.5455H180.245V79.9716H174.952V94H170.793V79.9716H165.492ZM197.983 85.2727C197.983 87.1932 197.614 88.821 196.875 90.1562C196.136 91.4915 195.136 92.5057 193.875 93.1989C192.619 93.892 191.21 94.2386 189.648 94.2386C188.08 94.2386 186.668 93.8892 185.412 93.1903C184.156 92.4915 183.159 91.4773 182.42 90.1477C181.688 88.8125 181.321 87.1875 181.321 85.2727C181.321 83.3523 181.688 81.7244 182.42 80.3892C183.159 79.054 184.156 78.0398 185.412 77.3466C186.668 76.6534 188.08 76.3068 189.648 76.3068C191.21 76.3068 192.619 76.6534 193.875 77.3466C195.136 78.0398 196.136 79.054 196.875 80.3892C197.614 81.7244 197.983 83.3523 197.983 85.2727ZM193.67 85.2727C193.67 84.1364 193.509 83.1761 193.185 82.392C192.866 81.608 192.406 81.0142 191.804 80.6108C191.207 80.2074 190.489 80.0057 189.648 80.0057C188.813 80.0057 188.094 80.2074 187.491 80.6108C186.889 81.0142 186.426 81.608 186.102 82.392C185.784 83.1761 185.625 84.1364 185.625 85.2727C185.625 86.4091 185.784 87.3693 186.102 88.1534C186.426 88.9375 186.889 89.5312 187.491 89.9347C188.094 90.3381 188.813 90.5398 189.648 90.5398C190.489 90.5398 191.207 90.3381 191.804 89.9347C192.406 89.5312 192.866 88.9375 193.185 88.1534C193.509 87.3693 193.67 86.4091 193.67 85.2727ZM200.446 94V76.5455H207.656C208.963 76.5455 210.091 76.7812 211.04 77.2528C211.994 77.7187 212.73 78.3892 213.247 79.2642C213.764 80.1335 214.023 81.1648 214.023 82.358C214.023 83.5682 213.759 84.5966 213.23 85.4432C212.702 86.2841 211.952 86.9261 210.98 87.3693C210.009 87.8068 208.858 88.0256 207.528 88.0256H202.969V84.7017H206.744C207.381 84.7017 207.912 84.6193 208.338 84.4545C208.77 84.2841 209.097 84.0284 209.318 83.6875C209.54 83.3409 209.651 82.8977 209.651 82.358C209.651 81.8182 209.54 81.3722 209.318 81.0199C209.097 80.6619 208.77 80.3949 208.338 80.2188C207.906 80.0369 207.375 79.946 206.744 79.946H204.665V94H200.446ZM210.273 86.0227L214.619 94H210.017L205.756 86.0227H210.273ZM216.337 94V76.5455H228.507V79.9716H220.555V83.5511H227.885V86.9858H220.555V90.5739H228.507V94H216.337Z" fill="url(#paint0_linear_1_30)"/>
<path d="M34.321 94H33.321V95H34.321V94ZM34.321 76.5455V75.5455H33.321V76.5455H34.321ZM44.9148 77.3125L44.4403 78.1928L44.4466 78.1962L44.9148 77.3125ZM47.1222 79.4347L46.2529 79.929L46.2543 79.9314L47.1222 79.4347ZM47.1051 85.75L46.2419 85.2451L46.2409 85.2468L47.1051 85.75ZM44.8636 87.8381L45.3171 88.7293V88.7293L44.8636 87.8381ZM36.9545 88.5795H35.9545V89.5795H36.9545V88.5795ZM36.9545 85.2557V84.2557H35.9545V85.2557H36.9545ZM42.2131 84.9233L41.7565 84.0336L41.7517 84.0361L42.2131 84.9233ZM43.1932 83.9943L44.0668 84.481L44.0697 84.4758L43.1932 83.9943ZM43.1932 81.1903L42.3196 81.6771L42.3226 81.6824L43.1932 81.1903ZM42.2131 80.2699L41.7659 81.1643V81.1643L42.2131 80.2699ZM38.5398 79.946V78.946H37.5398V79.946H38.5398ZM38.5398 94V95H39.5398V94H38.5398ZM35.321 94V76.5455H33.321V94H35.321ZM34.321 77.5455H41.5312V75.5455H34.321V77.5455ZM41.5312 77.5455C42.7074 77.5455 43.6652 77.775 44.4404 78.1928L45.3892 76.4322C44.2666 75.8272 42.9688 75.5455 41.5312 75.5455V77.5455ZM44.4466 78.1962C45.239 78.6159 45.8331 79.1908 46.2529 79.929L47.9914 78.9403C47.3772 77.8603 46.4996 77.0204 45.3829 76.4288L44.4466 78.1962ZM46.2543 79.9314C46.6723 80.6619 46.8977 81.5367 46.8977 82.5881H48.8977C48.8977 81.2417 48.6061 80.0142 47.9901 78.9379L46.2543 79.9314ZM46.8977 82.5881C46.8977 83.6423 46.6679 84.5168 46.2419 85.2451L47.9683 86.2549C48.5991 85.1764 48.8977 83.9429 48.8977 82.5881H46.8977ZM46.2409 85.2468C45.8199 85.97 45.2193 86.5351 44.4102 86.9468L45.3171 88.7293C46.4512 88.1524 47.3449 87.3255 47.9693 86.2532L46.2409 85.2468ZM44.4102 86.9468C43.6072 87.3553 42.6159 87.5795 41.4034 87.5795V89.5795C42.8614 89.5795 44.1769 89.3094 45.3171 88.7293L44.4102 86.9468ZM41.4034 87.5795H36.9545V89.5795H41.4034V87.5795ZM37.9545 88.5795V85.2557H35.9545V88.5795H37.9545ZM36.9545 86.2557H40.6193V84.2557H36.9545V86.2557ZM40.6193 86.2557C41.3662 86.2557 42.0671 86.1263 42.6744 85.8105L41.7517 84.0361C41.5068 84.1635 41.1452 84.2557 40.6193 84.2557V86.2557ZM42.6696 85.813C43.265 85.5075 43.7426 85.0629 44.0668 84.481L42.3196 83.5076C42.2006 83.7212 42.0248 83.8959 41.7565 84.0336L42.6696 85.813ZM44.0697 84.4758C44.3844 83.9027 44.5256 83.2633 44.5256 82.5881H42.5256C42.5256 82.981 42.4451 83.2791 42.3167 83.5129L44.0697 84.4758ZM44.5256 82.5881C44.5256 81.9101 44.3856 81.2677 44.0637 80.6983L42.3226 81.6824C42.444 81.8971 42.5256 82.1865 42.5256 82.5881H44.5256ZM44.0668 80.7036C43.7412 80.1194 43.2605 79.6756 42.6603 79.3755L41.7659 81.1643C42.0292 81.296 42.202 81.4659 42.3196 81.677L44.0668 80.7036ZM42.6603 79.3755C42.0538 79.0722 41.3595 78.946 40.6193 78.946V80.946C41.1405 80.946 41.5087 81.0358 41.7659 81.1643L42.6603 79.3755ZM40.6193 78.946H38.5398V80.946H40.6193V78.946ZM37.5398 79.946V94H39.5398V79.946H37.5398ZM38.5398 93H34.321V95H38.5398V93ZM65.821 82.8693V83.8693H66.9236L66.8163 82.772L65.821 82.8693ZM61.5597 82.8693L60.568 82.9981L60.6811 83.8693H61.5597V82.8693ZM61.2102 81.6847L60.3158 82.1319V82.1319L61.2102 81.6847ZM60.5114 80.7812L61.1646 80.0241L61.1646 80.0241L60.5114 80.7812ZM59.4801 80.2102L59.1516 81.1547L59.1598 81.1576L59.168 81.1603L59.4801 80.2102ZM55.9858 80.6278L55.4258 79.7993L55.4222 79.8018L55.9858 80.6278ZM54.5795 82.4261L53.6576 82.0387L53.6553 82.0444L54.5795 82.4261ZM54.5881 88.1875L53.6661 88.575L53.6696 88.583L54.5881 88.1875ZM55.9943 89.9517L55.4432 90.7862L55.4524 90.7921L55.9943 89.9517ZM59.4205 90.3608L59.1254 89.4053L59.1214 89.4066L59.4205 90.3608ZM60.4347 89.8409L61.0518 90.6278L61.0538 90.6262L60.4347 89.8409ZM61.1591 88.9972L60.2926 88.4979L60.2899 88.5026L61.1591 88.9972ZM61.5597 87.8636L61.5657 86.8637L60.7209 86.8586L60.5747 87.6906L61.5597 87.8636ZM65.821 87.8892L66.8165 87.9844L66.9205 86.8958L65.827 86.8892L65.821 87.8892ZM65.1477 90.1733L64.2533 89.7261L64.2506 89.7315L65.1477 90.1733ZM63.6222 92.2273L64.3099 92.9532L64.3132 92.9501L63.6222 92.2273ZM61.2528 93.6932L60.8893 92.7616L60.8874 92.7624L61.2528 93.6932ZM53.821 93.1989L53.3313 94.0708L53.3361 94.0734L53.821 93.1989ZM50.8722 90.1477L51.7519 89.6723L50.8722 90.1477ZM50.8892 80.3892L50.0126 79.908L50.0126 79.908L50.8892 80.3892ZM60.9972 76.75L60.6845 77.6999L60.69 77.7017L60.9972 76.75ZM63.3665 78.0284L62.7301 78.7998L62.7339 78.8029L63.3665 78.0284ZM65.821 81.8693H61.5597V83.8693H65.821V81.8693ZM62.5513 82.7405C62.4818 82.2054 62.3364 81.7009 62.1047 81.2374L60.3158 82.1319C60.4363 82.3729 60.5238 82.6582 60.568 82.9981L62.5513 82.7405ZM62.1047 81.2374C61.8712 80.7705 61.5574 80.363 61.1646 80.0241L59.8581 81.5384C60.0449 81.6995 60.197 81.8943 60.3158 82.1319L62.1047 81.2374ZM61.1646 80.0241C60.7659 79.6802 60.3035 79.4282 59.7923 79.2602L59.168 81.1603C59.4522 81.2537 59.6772 81.3823 59.8581 81.5384L61.1646 80.0241ZM59.8086 79.2657C59.2964 79.0876 58.7488 79.0057 58.1761 79.0057V81.0057C58.558 81.0057 58.8797 81.0601 59.1516 81.1547L59.8086 79.2657ZM58.1761 79.0057C57.1594 79.0057 56.2276 79.2574 55.4258 79.7993L56.5458 81.4563C56.9712 81.1688 57.4997 81.0057 58.1761 81.0057V79.0057ZM55.4222 79.8018C54.6315 80.3413 54.05 81.1052 53.6577 82.0387L55.5014 82.8136C55.7682 82.1789 56.1242 81.744 56.5494 81.4539L55.4222 79.8018ZM53.6553 82.0444C53.2684 82.9809 53.0938 84.067 53.0938 85.2727H55.0938C55.0938 84.2512 55.2429 83.4395 55.5038 82.8079L53.6553 82.0444ZM53.0938 85.2727C53.0938 86.5196 53.27 87.6324 53.6662 88.575L55.51 87.8C55.247 87.1744 55.0938 86.3441 55.0938 85.2727H53.0938ZM53.6696 88.583C54.0682 89.5086 54.6517 90.2634 55.4433 90.7862L56.5454 89.1172C56.1324 88.8445 55.7784 88.4232 55.5065 87.792L53.6696 88.583ZM55.4524 90.7921C56.2446 91.303 57.1577 91.5398 58.1506 91.5398V89.5398C57.4843 89.5398 56.96 89.3845 56.5363 89.1113L55.4524 90.7921ZM58.1506 91.5398C58.7013 91.5398 59.2274 91.4693 59.7195 91.315L59.1214 89.4066C58.8521 89.491 58.5316 89.5398 58.1506 89.5398V91.5398ZM59.7155 91.3163C60.2072 91.1644 60.6569 90.9375 61.0518 90.6278L59.8175 89.0541C59.6329 89.1989 59.4064 89.3185 59.1254 89.4053L59.7155 91.3163ZM61.0538 90.6262C61.4514 90.3127 61.7775 89.9325 62.0283 89.4917L60.2899 88.5026C60.1657 88.7209 60.0088 88.9032 59.8155 89.0556L61.0538 90.6262ZM62.0255 89.4965C62.2826 89.0503 62.4526 88.5601 62.5446 88.0367L60.5747 87.6906C60.519 88.0081 60.4219 88.2736 60.2927 88.4979L62.0255 89.4965ZM61.5537 88.8636L65.815 88.8892L65.827 86.8892L61.5657 86.8637L61.5537 88.8636ZM64.8256 87.7941C64.7643 88.4347 64.5777 89.0773 64.2533 89.7261L66.0422 90.6205C66.4678 89.7693 66.73 88.8892 66.8165 87.9844L64.8256 87.7941ZM64.2506 89.7315C63.9366 90.3692 63.5003 90.9602 62.9311 91.5045L64.3132 92.9501C65.0394 92.2557 65.6202 91.4774 66.0449 90.6151L64.2506 89.7315ZM62.9344 91.5013C62.3912 92.016 61.7153 92.4393 60.8893 92.7616L61.6164 94.6248C62.654 94.2198 63.5577 93.6658 64.3099 92.9532L62.9344 91.5013ZM60.8874 92.7624C60.0988 93.072 59.1641 93.2386 58.0653 93.2386V95.2386C59.3643 95.2386 60.5546 95.0417 61.6183 94.624L60.8874 92.7624ZM58.0653 93.2386C56.6372 93.2386 55.3924 92.9268 54.306 92.3243L53.3361 94.0734C54.7496 94.8573 56.3343 95.2386 58.0653 95.2386V93.2386ZM54.3107 92.327C53.2419 91.7267 52.3896 90.8522 51.7519 89.6723L49.9924 90.6232C50.7979 92.1137 51.9115 93.2733 53.3313 94.0708L54.3107 92.327ZM51.7519 89.6723C51.1273 88.5164 50.7898 87.064 50.7898 85.2727H48.7898C48.7898 87.311 49.1739 89.1086 49.9924 90.6232L51.7519 89.6723ZM50.7898 85.2727C50.7898 83.4774 51.1323 82.0245 51.7658 80.8704L50.0126 79.908C49.1802 81.4243 48.7898 83.2271 48.7898 85.2727H50.7898ZM51.7658 80.8704C52.4142 79.6893 53.2746 78.8167 54.3486 78.2211L53.3787 76.4721C51.9527 77.2628 50.8301 78.4187 50.0126 79.908L51.7658 80.8704ZM54.3486 78.2211C55.4377 77.6171 56.669 77.3068 58.0653 77.3068V75.3068C56.3594 75.3068 54.7895 75.6897 53.3787 76.4721L54.3486 78.2211ZM58.0653 77.3068C59.0284 77.3068 59.8989 77.4413 60.6845 77.6999L61.3098 75.8001C60.3 75.4678 59.2159 75.3068 58.0653 75.3068V77.3068ZM60.69 77.7017C61.4757 77.9553 62.1521 78.3229 62.7301 78.7998L64.0029 77.257C63.2173 76.6089 62.314 76.1243 61.3043 75.7983L60.69 77.7017ZM62.7339 78.8029C63.307 79.2709 63.7766 79.8486 64.1428 80.5469L65.914 79.6179C65.428 78.6912 64.7896 77.8995 63.999 77.2539L62.7339 78.8029ZM64.1428 80.5469C64.501 81.2299 64.7342 82.0311 64.8258 82.9667L66.8163 82.772C66.7033 81.6166 66.408 80.5599 65.914 79.6179L64.1428 80.5469ZM76.6129 83.6705H77.6129V82.6705H76.6129V83.6705ZM76.6129 86.875V87.875H77.6129V86.875H76.6129ZM68.5334 86.875H67.5334V87.875H68.5334V86.875ZM68.5334 83.6705V82.6705H67.5334V83.6705H68.5334ZM75.6129 83.6705V86.875H77.6129V83.6705H75.6129ZM76.6129 85.875H68.5334V87.875H76.6129V85.875ZM69.5334 86.875V83.6705H67.5334V86.875H69.5334ZM68.5334 84.6705H76.6129V82.6705H68.5334V84.6705ZM95.3991 82.8693V83.8693H96.5017L96.3944 82.772L95.3991 82.8693ZM91.1378 82.8693L90.1461 82.9981L90.2593 83.8693H91.1378V82.8693ZM90.7884 81.6847L89.8939 82.1319V82.1319L90.7884 81.6847ZM90.0895 80.7812L90.7427 80.0241V80.0241L90.0895 80.7812ZM89.0582 80.2102L88.7297 81.1547L88.7379 81.1576L88.7461 81.1603L89.0582 80.2102ZM85.5639 80.6278L85.0039 79.7993L85.0003 79.8018L85.5639 80.6278ZM84.1577 82.4261L83.2358 82.0387L83.2334 82.0444L84.1577 82.4261ZM84.1662 88.1875L83.2443 88.575L83.2477 88.583L84.1662 88.1875ZM85.5724 89.9517L85.0214 90.7862L85.0305 90.7921L85.5724 89.9517ZM88.9986 90.3608L88.7035 89.4053L88.6995 89.4066L88.9986 90.3608ZM90.0128 89.8409L90.6299 90.6278L90.6319 90.6262L90.0128 89.8409ZM90.7372 88.9972L89.8708 88.4979L89.8681 88.5026L90.7372 88.9972ZM91.1378 87.8636L91.1438 86.8637L90.299 86.8586L90.1529 87.6906L91.1378 87.8636ZM95.3991 87.8892L96.3946 87.9844L96.4987 86.8958L95.4051 86.8892L95.3991 87.8892ZM94.7259 90.1733L93.8314 89.7261L93.8287 89.7315L94.7259 90.1733ZM93.2003 92.2273L93.888 92.9532L93.8914 92.9501L93.2003 92.2273ZM90.831 93.6932L90.4674 92.7616L90.4655 92.7624L90.831 93.6932ZM83.3991 93.1989L82.9094 94.0708L82.9142 94.0734L83.3991 93.1989ZM80.4503 90.1477L81.33 89.6723L80.4503 90.1477ZM80.4673 80.3892L79.5907 79.908V79.908L80.4673 80.3892ZM90.5753 76.75L90.2627 77.6999L90.2681 77.7017L90.5753 76.75ZM92.9446 78.0284L92.3082 78.7998L92.3121 78.8029L92.9446 78.0284ZM95.3991 81.8693H91.1378V83.8693H95.3991V81.8693ZM92.1295 82.7405C92.06 82.2054 91.9145 81.7009 91.6828 81.2374L89.8939 82.1319C90.0145 82.3729 90.102 82.6582 90.1461 82.9981L92.1295 82.7405ZM91.6828 81.2374C91.4493 80.7705 91.1355 80.363 90.7427 80.0241L89.4363 81.5384C89.623 81.6995 89.7752 81.8943 89.8939 82.1319L91.6828 81.2374ZM90.7427 80.0241C90.3441 79.6802 89.8816 79.4282 89.3704 79.2602L88.7461 81.1603C89.0303 81.2537 89.2554 81.3823 89.4363 81.5384L90.7427 80.0241ZM89.3868 79.2657C88.8746 79.0876 88.3269 79.0057 87.7543 79.0057V81.0057C88.1362 81.0057 88.4578 81.0601 88.7297 81.1547L89.3868 79.2657ZM87.7543 79.0057C86.7375 79.0057 85.8057 79.2574 85.0039 79.7993L86.1239 81.4563C86.5494 81.1688 87.0778 81.0057 87.7543 81.0057V79.0057ZM85.0003 79.8018C84.2096 80.3413 83.6281 81.1052 83.2358 82.0387L85.0796 82.8136C85.3463 82.1789 85.7023 81.744 86.1275 81.4539L85.0003 79.8018ZM83.2334 82.0444C82.8466 82.9809 82.6719 84.067 82.6719 85.2727H84.6719C84.6719 84.2512 84.821 83.4395 85.0819 82.8079L83.2334 82.0444ZM82.6719 85.2727C82.6719 86.5196 82.8481 87.6324 83.2443 88.575L85.0881 87.8C84.8251 87.1744 84.6719 86.3441 84.6719 85.2727H82.6719ZM83.2477 88.583C83.6464 89.5086 84.2298 90.2634 85.0214 90.7862L86.1235 89.1172C85.7105 88.8445 85.3565 88.4232 85.0846 87.792L83.2477 88.583ZM85.0305 90.7921C85.8227 91.303 86.7358 91.5398 87.7287 91.5398V89.5398C87.0625 89.5398 86.5381 89.3845 86.1144 89.1113L85.0305 90.7921ZM87.7287 91.5398C88.2794 91.5398 88.8055 91.4693 89.2977 91.315L88.6995 89.4066C88.4303 89.491 88.1098 89.5398 87.7287 89.5398V91.5398ZM89.2937 91.3163C89.7853 91.1644 90.235 90.9375 90.6299 90.6278L89.3956 89.0541C89.211 89.1989 88.9846 89.3185 88.7035 89.4053L89.2937 91.3163ZM90.6319 90.6262C91.0295 90.3127 91.3556 89.9325 91.6064 89.4917L89.8681 88.5026C89.7438 88.7209 89.587 88.9032 89.3936 89.0556L90.6319 90.6262ZM91.6036 89.4965C91.8608 89.0503 92.0307 88.5601 92.1227 88.0367L90.1529 87.6906C90.0971 88.0081 90 88.2736 89.8708 88.4979L91.6036 89.4965ZM91.1318 88.8636L95.3931 88.8892L95.4051 86.8892L91.1438 86.8637L91.1318 88.8636ZM94.4037 87.7941C94.3424 88.4347 94.1558 89.0773 93.8314 89.7261L95.6203 90.6205C96.0459 89.7693 96.3081 88.8892 96.3946 87.9844L94.4037 87.7941ZM93.8287 89.7315C93.5147 90.3692 93.0785 90.9602 92.5092 91.5045L93.8914 92.9501C94.6176 92.2557 95.1983 91.4774 95.623 90.6151L93.8287 89.7315ZM92.5125 91.5013C91.9693 92.016 91.2934 92.4393 90.4674 92.7616L91.1945 94.6248C92.2321 94.2198 93.1358 93.6658 93.888 92.9532L92.5125 91.5013ZM90.4655 92.7624C89.677 93.072 88.7422 93.2386 87.6435 93.2386V95.2386C88.9424 95.2386 90.1327 95.0417 91.1964 94.624L90.4655 92.7624ZM87.6435 93.2386C86.2154 93.2386 84.9706 92.9268 83.8841 92.3243L82.9142 94.0734C84.3277 94.8573 85.9125 95.2386 87.6435 95.2386V93.2386ZM83.8888 92.327C82.82 91.7267 81.9677 90.8522 81.33 89.6723L79.5705 90.6232C80.3761 92.1137 81.4896 93.2733 82.9095 94.0708L83.8888 92.327ZM81.33 89.6723C80.7054 88.5164 80.3679 87.064 80.3679 85.2727H78.3679C78.3679 87.311 78.752 89.1086 79.5705 90.6232L81.33 89.6723ZM80.3679 85.2727C80.3679 83.4774 80.7104 82.0245 81.3439 80.8704L79.5907 79.908C78.7584 81.4243 78.3679 83.2271 78.3679 85.2727H80.3679ZM81.3439 80.8704C81.9923 79.6893 82.8527 78.8167 83.9267 78.2211L82.9568 76.4721C81.5308 77.2628 80.4083 78.4187 79.5907 79.908L81.3439 80.8704ZM83.9267 78.2211C85.0159 77.6171 86.2472 77.3068 87.6435 77.3068V75.3068C85.9375 75.3068 84.3677 75.6897 82.9568 76.4721L83.9267 78.2211ZM87.6435 77.3068C88.6065 77.3068 89.477 77.4413 90.2627 77.6999L90.8879 75.8001C89.8781 75.4678 88.7941 75.3068 87.6435 75.3068V77.3068ZM90.2681 77.7017C91.0539 77.9553 91.7302 78.3229 92.3082 78.7998L93.581 77.257C92.7954 76.6089 91.8922 76.1243 90.8825 75.7983L90.2681 77.7017ZM92.3121 78.8029C92.8851 79.2709 93.3547 79.8486 93.7209 80.5469L95.4921 79.6179C95.0061 78.6912 94.3677 77.8995 93.5771 77.2539L92.3121 78.8029ZM93.7209 80.5469C94.0792 81.2299 94.3124 82.0311 94.4039 82.9667L96.3944 82.772C96.2814 81.6166 95.9862 80.5599 95.4921 79.6179L93.7209 80.5469ZM113.18 90.1562L112.305 89.6722V89.6722L113.18 90.1562ZM110.18 93.1989L109.698 92.3225L109.696 92.3234L110.18 93.1989ZM101.717 93.1903L102.203 92.3166L101.717 93.1903ZM98.7251 90.1477L97.8485 90.6289L97.851 90.6334L98.7251 90.1477ZM98.7251 80.3892L97.8501 79.9051L97.8485 79.908L98.7251 80.3892ZM101.717 77.3466L102.2 78.2221L101.717 77.3466ZM110.18 77.3466L109.696 78.2221L109.698 78.223L110.18 77.3466ZM113.18 80.3892L112.305 80.8733L113.18 80.3892ZM109.489 82.392L108.563 82.7681L108.565 82.7738L109.489 82.392ZM108.109 80.6108L107.549 81.4392L107.552 81.4416L108.109 80.6108ZM103.796 80.6108L104.353 81.4416L103.796 80.6108ZM102.407 82.392L101.483 82.0103L101.48 82.016L102.407 82.392ZM102.407 88.1534L101.48 88.5294L101.483 88.5352L102.407 88.1534ZM103.796 89.9347L104.353 89.1038L103.796 89.9347ZM108.109 89.9347L107.552 89.1038L107.549 89.1063L108.109 89.9347ZM109.489 88.1534L108.565 87.7716L108.563 87.7774L109.489 88.1534ZM113.288 85.2727C113.288 87.0669 112.943 88.5187 112.305 89.6722L114.055 90.6403C114.894 89.1234 115.288 87.3195 115.288 85.2727H113.288ZM112.305 89.6722C111.652 90.8525 110.784 91.7259 109.698 92.3225L110.661 94.0752C112.098 93.2855 113.23 92.1304 114.055 90.6403L112.305 89.6722ZM109.696 92.3234C108.602 92.9277 107.361 93.2386 105.952 93.2386V95.2386C107.668 95.2386 109.246 94.8564 110.663 94.0743L109.696 92.3234ZM105.952 93.2386C104.538 93.2386 103.297 92.9252 102.203 92.3166L101.23 94.0641C102.648 94.8532 104.23 95.2386 105.952 95.2386V93.2386ZM102.203 92.3166C101.12 91.7138 100.253 90.8386 99.5993 89.6621L97.851 90.6334C98.6747 92.116 99.802 93.2692 101.23 94.0641L102.203 92.3166ZM99.6018 89.6665C98.968 88.512 98.6257 87.0617 98.6257 85.2727H96.6257C96.6257 87.3133 97.0164 89.113 97.8485 90.6289L99.6018 89.6665ZM98.6257 85.2727C98.6257 83.4774 98.9682 82.0245 99.6018 80.8704L97.8485 79.908C97.0162 81.4243 96.6257 83.2271 96.6257 85.2727H98.6257ZM99.6002 80.8733C100.254 79.6918 101.12 78.8184 102.2 78.2221L101.233 76.4711C99.8022 77.2612 98.6738 78.4162 97.8501 79.9051L99.6002 80.8733ZM102.2 78.2221C103.294 77.618 104.537 77.3068 105.952 77.3068V75.3068C104.231 75.3068 102.651 75.6888 101.233 76.4711L102.2 78.2221ZM105.952 77.3068C107.361 77.3068 108.602 77.6177 109.696 78.2221L110.663 76.4711C109.246 75.6891 107.668 75.3068 105.952 75.3068V77.3068ZM109.698 78.223C110.784 78.8196 111.652 79.6929 112.305 80.8733L114.055 79.9051C113.23 78.415 112.098 77.2599 110.661 76.4702L109.698 78.223ZM112.305 80.8733C112.943 82.0268 113.288 83.4786 113.288 85.2727H115.288C115.288 83.2259 114.894 81.4221 114.055 79.9051L112.305 80.8733ZM110.975 85.2727C110.975 84.0473 110.801 82.949 110.414 82.0103L108.565 82.7738C108.825 83.4033 108.975 84.2254 108.975 85.2727H110.975ZM110.416 82.016C110.036 81.0785 109.46 80.3122 108.665 79.78L107.552 81.4416C107.962 81.7162 108.307 82.1374 108.563 82.7681L110.416 82.016ZM108.669 79.7824C107.881 79.2494 106.959 79.0057 105.952 79.0057V81.0057C106.628 81.0057 107.144 81.1654 107.549 81.4392L108.669 79.7824ZM105.952 79.0057C104.95 79.0057 104.031 79.2502 103.24 79.78L104.353 81.4416C104.766 81.1646 105.284 81.0057 105.952 81.0057V79.0057ZM103.24 79.78C102.447 80.3111 101.869 81.0753 101.483 82.0103L103.331 82.7738C103.593 82.1406 103.941 81.7173 104.353 81.4416L103.24 79.78ZM101.48 82.016C101.1 82.9529 100.93 84.0491 100.93 85.2727H102.93C102.93 84.2236 103.077 83.3994 103.334 82.7681L101.48 82.016ZM100.93 85.2727C100.93 86.4964 101.1 87.5926 101.48 88.5294L103.334 87.7774C103.077 87.1461 102.93 86.3218 102.93 85.2727H100.93ZM101.483 88.5352C101.869 89.4702 102.447 90.2343 103.24 90.7655L104.353 89.1038C103.941 88.8282 103.593 88.4048 103.331 87.7716L101.483 88.5352ZM103.24 90.7655C104.031 91.2953 104.95 91.5398 105.952 91.5398V89.5398C105.284 89.5398 104.766 89.3809 104.353 89.1038L103.24 90.7655ZM105.952 91.5398C106.959 91.5398 107.881 91.2961 108.669 90.7631L107.549 89.1063C107.144 89.3801 106.628 89.5398 105.952 89.5398V91.5398ZM108.665 90.7655C109.46 90.2332 110.036 89.4669 110.416 88.5294L108.563 87.7774C108.307 88.4081 107.962 88.8293 107.552 89.1038L108.665 90.7655ZM110.414 88.5352C110.801 87.5965 110.975 86.4981 110.975 85.2727H108.975C108.975 86.3201 108.825 87.1422 108.565 87.7716L110.414 88.5352ZM116.751 76.5455V75.5455H115.751V76.5455H116.751ZM121.975 76.5455L122.9 76.166L122.646 75.5455H121.975V76.5455ZM126.407 87.3523L125.482 87.7317L125.736 88.3523H126.407V87.3523ZM126.612 87.3523V88.3523H127.282L127.537 87.7317L126.612 87.3523ZM131.043 76.5455V75.5455H130.373L130.118 76.166L131.043 76.5455ZM136.268 76.5455H137.268V75.5455H136.268V76.5455ZM136.268 94V95H137.268V94H136.268ZM132.16 94H131.16V95H132.16V94ZM132.16 83.2784H133.16V82.2784H132.16V83.2784ZM132.015 83.2784V82.2784H131.335L131.085 82.9109L132.015 83.2784ZM127.822 93.8892V94.8892H128.502L128.752 94.2567L127.822 93.8892ZM125.197 93.8892L124.266 94.2549L124.515 94.8892H125.197V93.8892ZM121.004 83.2188L121.934 82.853L121.685 82.2188H121.004V83.2188ZM120.859 83.2188V82.2188H119.859V83.2188H120.859ZM120.859 94V95H121.859V94H120.859ZM116.751 94H115.751V95H116.751V94ZM116.751 77.5455H121.975V75.5455H116.751V77.5455ZM121.05 76.9249L125.482 87.7317L127.332 86.9728L122.9 76.166L121.05 76.9249ZM126.407 88.3523H126.612V86.3523H126.407V88.3523ZM127.537 87.7317L131.969 76.9249L130.118 76.166L125.686 86.9728L127.537 87.7317ZM131.043 77.5455H136.268V75.5455H131.043V77.5455ZM135.268 76.5455V94H137.268V76.5455H135.268ZM136.268 93H132.16V95H136.268V93ZM133.16 94V83.2784H131.16V94H133.16ZM132.16 82.2784H132.015V84.2784H132.16V82.2784ZM131.085 82.9109L126.892 93.5217L128.752 94.2567L132.945 83.6459L131.085 82.9109ZM127.822 92.8892H125.197V94.8892H127.822V92.8892ZM126.127 93.5235L121.934 82.853L120.073 83.5845L124.266 94.2549L126.127 93.5235ZM121.004 82.2188H120.859V84.2188H121.004V82.2188ZM119.859 83.2188V94H121.859V83.2188H119.859ZM120.859 93H116.751V95H120.859V93ZM117.751 94V76.5455H115.751V94H117.751ZM147.277 83.6705H148.277V82.6705H147.277V83.6705ZM147.277 86.875V87.875H148.277V86.875H147.277ZM139.197 86.875H138.197V87.875H139.197V86.875ZM139.197 83.6705V82.6705H138.197V83.6705H139.197ZM146.277 83.6705V86.875H148.277V83.6705H146.277ZM147.277 85.875H139.197V87.875H147.277V85.875ZM140.197 86.875V83.6705H138.197V86.875H140.197ZM139.197 84.6705H147.277V82.6705H139.197V84.6705ZM159.654 81.7784L158.658 81.8689L158.741 82.7784H159.654V81.7784ZM158.896 80.321L158.273 81.1039L158.284 81.1125L158.896 80.321ZM155.631 80.0057L155.268 79.0742V79.0742L155.631 80.0057ZM154.813 80.5938L155.615 81.1908L155.622 81.1819L154.813 80.5938ZM154.532 81.4375L155.531 81.4809L155.532 81.4682L155.532 81.4554L154.532 81.4375ZM154.685 82.1278L153.817 82.624L153.822 82.6332L153.828 82.6423L154.685 82.1278ZM155.197 82.6562L154.628 83.4784L154.64 83.4867L154.652 83.4947L155.197 82.6562ZM156.015 83.0483L156.351 82.1066V82.1066L156.015 83.0483ZM157.089 83.3466L157.31 82.3714L157.298 82.3688L157.089 83.3466ZM158.589 83.6875L158.367 84.6627L158.377 84.6647L158.589 83.6875ZM160.873 84.4375L160.444 85.3411L160.447 85.3425L160.873 84.4375ZM162.543 85.554L161.85 86.2746L161.855 86.279L162.543 85.554ZM163.575 87.0455L162.651 87.4281V87.4281L163.575 87.0455ZM163.933 88.9375L164.933 88.9427L164.932 88.9294L163.933 88.9375ZM163.097 91.7756L162.277 91.2033V91.2033L163.097 91.7756ZM160.719 93.5909L160.343 92.6646L160.341 92.6653L160.719 93.5909ZM153.177 93.5653L153.551 92.6379L153.177 93.5653ZM149.717 88.1875V87.1875H148.704L148.717 88.2L149.717 88.1875ZM153.756 88.1875L154.755 88.127L154.698 87.1875H153.756V88.1875ZM154.208 89.5938L153.394 90.1738L154.208 89.5938ZM155.308 90.446L154.925 91.3698L154.928 91.3714L155.308 90.446ZM158.393 90.5057L158.037 89.571L158.033 89.5727L158.393 90.5057ZM159.322 89.8665L158.538 89.2458V89.2458L159.322 89.8665ZM159.654 88.929L160.654 88.9451L160.654 88.9284L160.654 88.9117L159.654 88.929ZM159.347 88.0852L158.579 88.7255L158.587 88.7345L159.347 88.0852ZM158.427 87.4716L158.031 88.3901L158.039 88.3934L158.047 88.3965L158.427 87.4716ZM156.859 86.9858L156.631 87.9596L156.633 87.9599L156.859 86.9858ZM155.035 86.5597L155.262 85.5859L155.258 85.585L155.035 86.5597ZM151.464 84.8807L150.797 85.6257L150.799 85.6281L151.464 84.8807ZM150.168 81.7273L151.168 81.7316L151.168 81.722L150.168 81.7273ZM151.038 78.8892L150.226 78.3047H150.226L151.038 78.8892ZM153.467 76.9886L153.869 77.9041V77.9041L153.467 76.9886ZM160.523 76.9972L160.103 77.9047L160.11 77.9075L160.523 76.9972ZM162.85 78.9148L163.681 78.3588V78.3588L162.85 78.9148ZM163.694 81.7784V82.7784H164.704L164.694 81.7679L163.694 81.7784ZM160.65 81.6879C160.571 80.8187 160.201 80.0652 159.507 79.5295L158.284 81.1125C158.488 81.27 158.624 81.4881 158.658 81.8689L160.65 81.6879ZM159.518 79.5382C158.833 78.9938 157.945 78.7926 156.995 78.7926V80.7926C157.693 80.7926 158.072 80.9437 158.273 81.1038L159.518 79.5382ZM156.995 78.7926C156.371 78.7926 155.783 78.8728 155.268 79.0742L155.995 80.9371C156.207 80.8545 156.528 80.7926 156.995 80.7926V78.7926ZM155.268 79.0742C154.772 79.2676 154.325 79.565 154.004 80.0056L155.622 81.1819C155.665 81.1225 155.763 81.0278 155.995 80.9371L155.268 79.0742ZM154.011 79.9967C153.699 80.4166 153.541 80.9025 153.532 81.4196L155.532 81.4554C155.534 81.3361 155.564 81.2596 155.615 81.1908L154.011 79.9967ZM153.533 81.3941C153.515 81.8166 153.597 82.2389 153.817 82.624L155.554 81.6317C155.546 81.6191 155.527 81.5812 155.531 81.4809L153.533 81.3941ZM153.828 82.6423C154.031 82.9813 154.308 83.2571 154.628 83.4784L155.766 81.8341C155.642 81.7485 155.578 81.6721 155.543 81.6133L153.828 82.6423ZM154.652 83.4947C154.958 83.6938 155.304 83.8563 155.679 83.99L156.351 82.1066C156.089 82.013 155.89 81.9142 155.742 81.8178L154.652 83.4947ZM155.679 83.99C156.046 84.1211 156.447 84.2317 156.879 84.3244L157.298 82.3688C156.935 82.291 156.621 82.2028 156.351 82.1066L155.679 83.99ZM156.867 84.3217L158.367 84.6626L158.81 82.7124L157.31 82.3715L156.867 84.3217ZM158.377 84.6647C159.181 84.8393 159.867 85.0673 160.444 85.3411L161.301 83.5339C160.56 83.1827 159.724 82.9107 158.801 82.7103L158.377 84.6647ZM160.447 85.3425C161.031 85.6167 161.492 85.9306 161.85 86.2746L163.237 84.8333C162.696 84.3137 162.045 83.8833 161.298 83.5325L160.447 85.3425ZM161.855 86.279C162.211 86.6173 162.473 86.9988 162.651 87.4281L164.498 86.6628C164.21 85.9671 163.785 85.3543 163.232 84.829L161.855 86.279ZM162.651 87.4281C162.828 87.8556 162.928 88.3565 162.933 88.9456L164.932 88.9294C164.926 88.1208 164.787 87.3604 164.498 86.6628L162.651 87.4281ZM162.933 88.9323C162.928 89.862 162.696 90.6032 162.277 91.2033L163.917 92.3478C164.601 91.3684 164.926 90.2175 164.933 88.9427L162.933 88.9323ZM162.277 91.2033C161.853 91.8108 161.227 92.305 160.343 92.6646L161.096 94.5173C162.28 94.0359 163.239 93.3199 163.917 92.3478L162.277 91.2033ZM160.341 92.6653C159.464 93.024 158.358 93.2216 156.995 93.2216V95.2216C158.541 95.2216 159.918 94.9987 161.098 94.5165L160.341 92.6653ZM156.995 93.2216C155.632 93.2216 154.492 93.0172 153.551 92.6379L152.803 94.4928C154.032 94.9885 155.437 95.2216 156.995 95.2216V93.2216ZM153.551 92.6379C152.634 92.2681 151.955 91.7238 151.474 91.0115L149.817 92.1306C150.54 93.2023 151.55 93.9876 152.803 94.4928L153.551 92.6379ZM151.474 91.0115C151.007 90.3194 150.732 89.3954 150.717 88.175L148.717 88.2C148.736 89.7069 149.08 91.0386 149.817 92.1306L151.474 91.0115ZM149.717 89.1875H153.756V87.1875H149.717V89.1875ZM152.758 88.248C152.801 88.9555 152.996 89.6153 153.394 90.1738L155.023 89.0137C154.886 88.8222 154.78 88.5445 154.755 88.127L152.758 88.248ZM153.394 90.1738C153.78 90.716 154.303 91.1119 154.925 91.3698L155.691 89.5223C155.381 89.3938 155.171 89.2215 155.023 89.0137L153.394 90.1738ZM154.928 91.3714C155.543 91.6232 156.222 91.7358 156.944 91.7358V89.7358C156.427 89.7358 156.015 89.6552 155.687 89.5207L154.928 91.3714ZM156.944 91.7358C157.597 91.7358 158.209 91.6484 158.753 91.4387L158.033 89.5727C157.781 89.6698 157.428 89.7358 156.944 89.7358V91.7358ZM158.748 91.4404C159.28 91.2382 159.754 90.9317 160.106 90.4872L158.538 89.2458C158.458 89.3467 158.312 89.4663 158.037 89.571L158.748 91.4404ZM160.106 90.4872C160.46 90.0397 160.645 89.5141 160.654 88.9451L158.654 88.9128C158.652 89.0484 158.615 89.1478 158.538 89.2458L160.106 90.4872ZM160.654 88.9117C160.645 88.3691 160.469 87.8594 160.108 87.436L158.587 88.7345C158.623 88.777 158.652 88.8298 158.654 88.9462L160.654 88.9117ZM160.116 87.445C159.776 87.0381 159.31 86.7534 158.807 86.5466L158.047 88.3965C158.373 88.5307 158.52 88.655 158.579 88.7254L160.116 87.445ZM158.822 86.5531C158.34 86.3453 157.755 86.1673 157.085 86.0117L156.633 87.9599C157.235 88.0998 157.696 88.2456 158.031 88.3901L158.822 86.5531ZM157.086 86.012L155.262 85.5859L154.807 87.5334L156.631 87.9596L157.086 86.012ZM155.258 85.585C153.858 85.2639 152.837 84.7634 152.128 84.1333L150.799 85.6281C151.829 86.5434 153.189 87.1623 154.811 87.5344L155.258 85.585ZM152.131 84.1357C151.504 83.5747 151.164 82.8123 151.168 81.7316L149.168 81.723C149.162 83.29 149.685 84.6298 150.797 85.6257L152.131 84.1357ZM151.168 81.722C151.164 80.8365 151.397 80.1008 151.849 79.4737L150.226 78.3047C149.507 79.3026 149.162 80.4589 149.168 81.7325L151.168 81.722ZM151.849 79.4737C152.317 78.8239 152.977 78.2962 153.869 77.9041L153.064 76.0732C151.888 76.5902 150.929 77.3295 150.226 78.3047L151.849 79.4737ZM153.869 77.9041C154.756 77.5141 155.795 77.3068 157.004 77.3068V75.3068C155.565 75.3068 154.245 75.5541 153.064 76.0732L153.869 77.9041ZM157.004 77.3068C158.244 77.3068 159.268 77.5179 160.103 77.9047L160.943 76.0897C159.79 75.556 158.468 75.3068 157.004 75.3068V77.3068ZM160.11 77.9075C160.959 78.2937 161.582 78.818 162.019 79.4708L163.681 78.3588C163.016 77.3638 162.088 76.6097 160.937 76.0868L160.11 77.9075ZM162.019 79.4708C162.452 80.1178 162.684 80.8788 162.694 81.7889L164.694 81.7679C164.681 80.5075 164.351 79.3594 163.681 78.3588L162.019 79.4708ZM163.694 80.7784H159.654V82.7784H163.694V80.7784ZM165.492 79.9716H164.492V80.9716H165.492V79.9716ZM165.492 76.5455V75.5455H164.492V76.5455H165.492ZM180.245 76.5455H181.245V75.5455H180.245V76.5455ZM180.245 79.9716V80.9716H181.245V79.9716H180.245ZM174.952 79.9716V78.9716H173.952V79.9716H174.952ZM174.952 94V95H175.952V94H174.952ZM170.793 94H169.793V95H170.793V94ZM170.793 79.9716H171.793V78.9716H170.793V79.9716ZM166.492 79.9716V76.5455H164.492V79.9716H166.492ZM165.492 77.5455H180.245V75.5455H165.492V77.5455ZM179.245 76.5455V79.9716H181.245V76.5455H179.245ZM180.245 78.9716H174.952V80.9716H180.245V78.9716ZM173.952 79.9716V94H175.952V79.9716H173.952ZM174.952 93H170.793V95H174.952V93ZM171.793 94V79.9716H169.793V94H171.793ZM170.793 78.9716H165.492V80.9716H170.793V78.9716ZM196.875 90.1562L196 89.6722V89.6722L196.875 90.1562ZM193.875 93.1989L193.393 92.3225L193.392 92.3234L193.875 93.1989ZM185.412 93.1903L185.898 92.3166L185.412 93.1903ZM182.42 90.1477L181.544 90.6289L181.546 90.6334L182.42 90.1477ZM182.42 80.3892L181.545 79.9051L181.544 79.908L182.42 80.3892ZM185.412 77.3466L185.895 78.2221L185.412 77.3466ZM193.875 77.3466L193.392 78.2221L193.393 78.223L193.875 77.3466ZM196.875 80.3892L196 80.8733L196.875 80.3892ZM193.185 82.392L192.258 82.7681L192.26 82.7738L193.185 82.392ZM191.804 80.6108L191.244 81.4392L191.247 81.4416L191.804 80.6108ZM187.491 80.6108L188.048 81.4416L187.491 80.6108ZM186.102 82.392L185.178 82.0103L185.176 82.016L186.102 82.392ZM186.102 88.1534L185.176 88.5294L185.178 88.5352L186.102 88.1534ZM187.491 89.9347L188.048 89.1038L187.491 89.9347ZM191.804 89.9347L191.247 89.1038L191.244 89.1063L191.804 89.9347ZM193.185 88.1534L192.26 87.7716L192.258 87.7774L193.185 88.1534ZM196.983 85.2727C196.983 87.0669 196.638 88.5187 196 89.6722L197.75 90.6403C198.589 89.1234 198.983 87.3195 198.983 85.2727H196.983ZM196 89.6722C195.347 90.8525 194.479 91.7259 193.393 92.3225L194.357 94.0752C195.794 93.2855 196.926 92.1304 197.75 90.6403L196 89.6722ZM193.392 92.3234C192.297 92.9277 191.057 93.2386 189.648 93.2386V95.2386C191.364 95.2386 192.942 94.8564 194.358 94.0743L193.392 92.3234ZM189.648 93.2386C188.234 93.2386 186.992 92.9252 185.898 92.3166L184.926 94.0641C186.343 94.8532 187.925 95.2386 189.648 95.2386V93.2386ZM185.898 92.3166C184.815 91.7138 183.948 90.8386 183.295 89.6621L181.546 90.6334C182.37 92.116 183.497 93.2692 184.926 94.0641L185.898 92.3166ZM183.297 89.6665C182.663 88.512 182.321 87.0617 182.321 85.2727H180.321C180.321 87.3133 180.712 89.113 181.544 90.6289L183.297 89.6665ZM182.321 85.2727C182.321 83.4774 182.664 82.0245 183.297 80.8704L181.544 79.908C180.711 81.4243 180.321 83.2271 180.321 85.2727H182.321ZM183.295 80.8733C183.949 79.6918 184.815 78.8184 185.895 78.2221L184.929 76.4711C183.497 77.2612 182.369 78.4162 181.545 79.9051L183.295 80.8733ZM185.895 78.2221C186.989 77.618 188.232 77.3068 189.648 77.3068V75.3068C187.927 75.3068 186.346 75.6888 184.929 76.4711L185.895 78.2221ZM189.648 77.3068C191.057 77.3068 192.297 77.6177 193.392 78.2221L194.358 76.4711C192.942 75.6891 191.364 75.3068 189.648 75.3068V77.3068ZM193.393 78.223C194.479 78.8196 195.347 79.6929 196 80.8733L197.75 79.9051C196.926 78.415 195.794 77.2599 194.357 76.4702L193.393 78.223ZM196 80.8733C196.638 82.0268 196.983 83.4786 196.983 85.2727H198.983C198.983 83.2259 198.589 81.4221 197.75 79.9051L196 80.8733ZM194.67 85.2727C194.67 84.0473 194.497 82.949 194.109 82.0103L192.26 82.7738C192.52 83.4033 192.67 84.2254 192.67 85.2727H194.67ZM194.111 82.016C193.731 81.0785 193.155 80.3122 192.36 79.78L191.247 81.4416C191.657 81.7162 192.002 82.1374 192.258 82.7681L194.111 82.016ZM192.364 79.7824C191.576 79.2494 190.654 79.0057 189.648 79.0057V81.0057C190.323 81.0057 190.839 81.1654 191.244 81.4392L192.364 79.7824ZM189.648 79.0057C188.645 79.0057 187.726 79.2502 186.935 79.78L188.048 81.4416C188.462 81.1646 188.98 81.0057 189.648 81.0057V79.0057ZM186.935 79.78C186.142 80.3111 185.564 81.0753 185.178 82.0103L187.027 82.7738C187.288 82.1406 187.636 81.7173 188.048 81.4416L186.935 79.78ZM185.176 82.016C184.795 82.9529 184.625 84.0491 184.625 85.2727H186.625C186.625 84.2236 186.773 83.3994 187.029 82.7681L185.176 82.016ZM184.625 85.2727C184.625 86.4964 184.795 87.5926 185.176 88.5294L187.029 87.7774C186.773 87.1461 186.625 86.3218 186.625 85.2727H184.625ZM185.178 88.5352C185.564 89.4702 186.142 90.2343 186.935 90.7655L188.048 89.1038C187.636 88.8282 187.288 88.4048 187.027 87.7716L185.178 88.5352ZM186.935 90.7655C187.726 91.2953 188.645 91.5398 189.648 91.5398V89.5398C188.98 89.5398 188.462 89.3809 188.048 89.1038L186.935 90.7655ZM189.648 91.5398C190.654 91.5398 191.576 91.2961 192.364 90.7631L191.244 89.1063C190.839 89.3801 190.323 89.5398 189.648 89.5398V91.5398ZM192.36 90.7655C193.155 90.2332 193.731 89.4669 194.111 88.5294L192.258 87.7774C192.002 88.4081 191.657 88.8293 191.247 89.1038L192.36 90.7655ZM194.109 88.5352C194.497 87.5965 194.67 86.4981 194.67 85.2727H192.67C192.67 86.3201 192.52 87.1422 192.26 87.7716L194.109 88.5352ZM200.446 94H199.446V95H200.446V94ZM200.446 76.5455V75.5455H199.446V76.5455H200.446ZM211.04 77.2528L210.595 78.1484L210.601 78.1515L211.04 77.2528ZM213.247 79.2642L212.386 79.7729L212.388 79.7754L213.247 79.2642ZM213.23 85.4432L214.077 85.9752L214.078 85.9727L213.23 85.4432ZM210.98 87.3693L211.391 88.2812L211.395 88.2791L210.98 87.3693ZM202.969 88.0256H201.969V89.0256H202.969V88.0256ZM202.969 84.7017V83.7017H201.969V84.7017H202.969ZM208.338 84.4545L208.699 85.3873L208.705 85.3847L208.338 84.4545ZM209.318 83.6875L210.157 84.2325L210.161 84.2262L209.318 83.6875ZM209.318 81.0199L208.468 81.5463L208.472 81.5523L209.318 81.0199ZM208.338 80.2188L207.95 81.1404L207.96 81.1447L208.338 80.2188ZM204.665 79.946V78.946H203.665V79.946H204.665ZM204.665 94V95H205.665V94H204.665ZM210.273 86.0227L211.151 85.5443L210.867 85.0227H210.273V86.0227ZM214.619 94V95H216.303L215.497 93.5215L214.619 94ZM210.017 94L209.135 94.4712L209.417 95H210.017V94ZM205.756 86.0227V85.0227H204.088L204.874 86.4939L205.756 86.0227ZM201.446 94V76.5455H199.446V94H201.446ZM200.446 77.5455H207.656V75.5455H200.446V77.5455ZM207.656 77.5455C208.844 77.5455 209.813 77.7596 210.595 78.1483L211.485 76.3573C210.369 75.8029 209.082 75.5455 207.656 75.5455V77.5455ZM210.601 78.1515C211.388 78.5356 211.973 79.0743 212.386 79.7729L214.108 78.7555C213.487 77.7041 212.6 76.9019 211.478 76.3542L210.601 78.1515ZM212.388 79.7754C212.797 80.4642 213.023 81.3121 213.023 82.358H215.023C215.023 81.0175 214.731 79.8028 214.107 78.753L212.388 79.7754ZM213.023 82.358C213.023 83.421 212.792 84.2568 212.382 84.9137L214.078 85.9727C214.725 84.9364 215.023 83.7154 215.023 82.358H213.023ZM212.383 84.9111C211.967 85.5741 211.373 86.091 210.565 86.4595L211.395 88.2791C212.53 87.7613 213.437 86.9941 214.077 85.9752L212.383 84.9111ZM210.57 86.4575C209.755 86.8244 208.75 87.0256 207.528 87.0256V89.0256C208.965 89.0256 210.262 88.7893 211.391 88.2811L210.57 86.4575ZM207.528 87.0256H202.969V89.0256H207.528V87.0256ZM203.969 88.0256V84.7017H201.969V88.0256H203.969ZM202.969 85.7017H206.744V83.7017H202.969V85.7017ZM206.744 85.7017C207.459 85.7017 208.122 85.6103 208.699 85.3872L207.977 83.5218C207.702 83.6284 207.302 83.7017 206.744 83.7017V85.7017ZM208.705 85.3847C209.302 85.1492 209.806 84.7716 210.157 84.2325L208.48 83.1425C208.387 83.2852 208.238 83.419 207.971 83.5244L208.705 85.3847ZM210.161 84.2262C210.513 83.6757 210.651 83.0302 210.651 82.358H208.651C208.651 82.7653 208.567 83.0061 208.476 83.1488L210.161 84.2262ZM210.651 82.358C210.651 81.6848 210.512 81.0401 210.165 80.4874L208.472 81.5523C208.567 81.7042 208.651 81.9515 208.651 82.358H210.651ZM210.168 80.4935C209.824 79.9364 209.321 79.5398 208.716 79.2928L207.96 81.1447C208.219 81.25 208.37 81.3874 208.468 81.5462L210.168 80.4935ZM208.726 79.2971C208.137 79.049 207.465 78.946 206.744 78.946V80.946C207.285 80.946 207.676 81.0248 207.95 81.1404L208.726 79.2971ZM206.744 78.946H204.665V80.946H206.744V78.946ZM203.665 79.946V94H205.665V79.946H203.665ZM204.665 93H200.446V95H204.665V93ZM209.395 86.5012L213.741 94.4785L215.497 93.5215L211.151 85.5443L209.395 86.5012ZM214.619 93H210.017V95H214.619V93ZM210.899 93.5288L206.638 85.5516L204.874 86.4939L209.135 94.4712L210.899 93.5288ZM205.756 87.0227H210.273V85.0227H205.756V87.0227ZM216.337 94H215.337V95H216.337V94ZM216.337 76.5455V75.5455H215.337V76.5455H216.337ZM228.507 76.5455H229.507V75.5455H228.507V76.5455ZM228.507 79.9716V80.9716H229.507V79.9716H228.507ZM220.555 79.9716V78.9716H219.555V79.9716H220.555ZM220.555 83.5511H219.555V84.5511H220.555V83.5511ZM227.885 83.5511H228.885V82.5511H227.885V83.5511ZM227.885 86.9858V87.9858H228.885V86.9858H227.885ZM220.555 86.9858V85.9858H219.555V86.9858H220.555ZM220.555 90.5739H219.555V91.5739H220.555V90.5739ZM228.507 90.5739H229.507V89.5739H228.507V90.5739ZM228.507 94V95H229.507V94H228.507ZM217.337 94V76.5455H215.337V94H217.337ZM216.337 77.5455H228.507V75.5455H216.337V77.5455ZM227.507 76.5455V79.9716H229.507V76.5455H227.507ZM228.507 78.9716H220.555V80.9716H228.507V78.9716ZM219.555 79.9716V83.5511H221.555V79.9716H219.555ZM220.555 84.5511H227.885V82.5511H220.555V84.5511ZM226.885 83.5511V86.9858H228.885V83.5511H226.885ZM227.885 85.9858H220.555V87.9858H227.885V85.9858ZM219.555 86.9858V90.5739H221.555V86.9858H219.555ZM220.555 91.5739H228.507V89.5739H220.555V91.5739ZM227.507 90.5739V94H229.507V90.5739H227.507ZM228.507 93H216.337V95H228.507V93Z" fill="black" mask="url(#path-2-outside-1_1_30)"/>
</g>
<defs>
<filter id="filter0_d_1_30" x="30.321" y="76.3068" width="202.186" height="25.9318" filterUnits="userSpaceOnUse" color-interpolation-filters="sRGB">
<feFlood flood-opacity="0" result="BackgroundImageFix"/>
<feColorMatrix in="SourceAlpha" type="matrix" values="0 0 0 0 0 0 0 0 0 0 0 0 0 0 0 0 0 0 127 0" result="hardAlpha"/>
<feOffset dy="4"/>
<feGaussianBlur stdDeviation="2"/>
<feComposite in2="hardAlpha" operator="out"/>
<feColorMatrix type="matrix" values="0 0 0 0 0 0 0 0 0 0 0 0 0 0 0 0 0 0 0.25 0"/>
<feBlend mode="normal" in2="BackgroundImageFix" result="effect1_dropShadow_1_30"/>
<feBlend mode="normal" in="SourceGraphic" in2="effect1_dropShadow_1_30" result="shape"/>
</filter>
<linearGradient id="paint0_linear_1_30" x1="33" y1="85.5" x2="230" y2="85.5" gradientUnits="userSpaceOnUse">
<stop stop-color="#3F3F3F"/>
<stop offset="0.9999" stop-color="white"/>
</linearGradient>
</defs>
</svg>
